<?xml version="1.0" encoding="UTF-8"?>
<svg width="120" height="120" viewBox="0 0 120 120" fill="none" xmlns="http://www.w3.org/2000/svg">
  <circle cx="60" cy="60" r="50" fill="#1976d2" stroke="#ff9800" stroke-width="6"/>
  <path d="M60 25a35 35 0 1 1 0 70a35 35 0 1 1 0-70z" fill="#fff" fill-opacity="0.12"/>
  <path d="M60 40c10 0 18 8 18 18 0 7-4 13-10 16l-8 16-8-16c-6-3-10-9-10-16 0-10 8-18 18-18z" fill="#ff9800" fill-opacity="0.85"/>
  <circle cx="60" cy="58" r="7" fill="#1976d2" stroke="#fff" stroke-width="3"/>
  <path d="M45 80c5-10 25-10 30 0" stroke="#fff" stroke-width="3" stroke-linecap="round"/>
  <text x="60" y="112" text-anchor="middle" font-family="Verdana, Arial, sans-serif" font-size="18" fill="#1976d2" font-weight="bold">W</text>
</svg> 